<?xml version="1.0" encoding="utf-8"?>
<!-- Generator: Adobe Illustrator 21.1.0, SVG Export Plug-In . SVG Version: 6.00 Build 0)  -->
<svg version="1.1" id="Layer_1" xmlns="http://www.w3.org/2000/svg" xmlns:xlink="http://www.w3.org/1999/xlink" x="0px" y="0px"
	 viewBox="0 0 443.1 160.6" style="enable-background:new 0 0 443.1 160.6;" xml:space="preserve">
<style type="text/css">
	.st0{fill:#a9aaae;}
	.st1{fill:#f1f4f9;}
</style>
<g>
	<g>
		<g>
			<path class="st0" d="M214.9,38.6c-2.8,0-5.3,1.3-7.1,3.5c-1.7,2-2,3.3-2,7.4v22.2c0,3.8-1.8,6.2-5,6.2s-5-2.4-5-6.4v-22
				c0-3.9-0.7-6-2.5-7.9c-1.7-1.8-4.3-2.9-6.8-2.9c-2.7,0-5.5,1.4-7.3,3.6c-1.6,2.1-1.9,3.4-1.9,8.7v19.6c0,7.4,1.1,11.3,4.5,16
				c4.4,6,11.5,9.7,19,9.7c6.6,0,13.1-3,17.6-8.2c4-4.5,5.8-9.9,5.8-17.5V50.7c0-5-0.4-6.7-2.2-8.8
				C220.4,39.9,217.6,38.6,214.9,38.6z M168.9,56.9c-1.6-4.1-4.1-7.9-7.4-10.8c-5.4-4.8-11.9-7.1-20.2-7.1H130
				c-5.3,0-8.8,2.1-10.1,6.1c-0.4,1.3-0.4,1.8-0.4,6.4v30.7c0,3.8,0,4.8,0.3,6c0.6,2.2,1.8,3.7,3.8,5c1.7,1.2,3.4,1.5,7.8,1.5h7.8
				c3.8,0,7.2-0.2,9.4-0.7c4.8-1,9.5-3.4,13.1-6.8c5.7-5.3,8.9-12.8,8.9-20.5C170.7,63.4,170.1,60.1,168.9,56.9L168.9,56.9z
				 M145.6,56.9c0.3,0.1,0.6,0.2,0.9,0.4c3.6,1.8,5.9,5.5,5.9,9.6c0,3.4-1.8,6.9-4.5,8.9c-2.2,1.5-3.7,1.8-10,1.8V56.1h1.5
				C142.3,56.1,144.1,56.4,145.6,56.9L145.6,56.9z M272.6,38.6c-3,0-5.9,1.6-7.5,4c-1.3,1.9-1.7,3.6-1.7,7.3v10.4l-2.7-3.3
				l-11.9-14.7c-2.1-2.6-4.2-3.7-6.9-3.7c-5.8,0-9.6,3.9-9.6,9.9v35.3c0,4.1,0.4,5.8,1.9,7.9c1.8,2.3,4.5,3.6,7.4,3.6
				c2.8,0,5.3-1.3,7.1-3.3c1.6-2,2.1-3.7,2.1-7.4V72.8l14.5,18.6c1.9,2.5,4.3,3.8,7.3,3.8c2.8,0,5.5-1.3,7.2-3.4
				c1.6-2.1,2-3.9,2-8.4V49.3c0-3.4-0.6-5.3-2.2-7.4C277.9,39.8,275.4,38.6,272.6,38.6z M325.3,66.2l6.4-9.3l3-4.3
				c0.9-1.3,1.4-3.1,1.4-4.8c0-4.9-4.3-9.2-9.3-9.2c-3.1,0-5.8,1.5-7.6,4.3L309.7,57l-0.6,1v-9c0-3.3-0.7-5.4-2.4-7.3
				c-1.7-1.9-4.3-3.1-6.9-3.1c-5.5,0-9.2,4.2-9.2,10.3v35.8c0,6.4,3.6,10.5,9.4,10.5c5.5,0,9.2-4.2,9.2-10.6V75l13.6,17.4
				c1.3,1.7,3.8,2.8,6.4,2.8c5,0,9.2-4.3,9.2-9.4c0-1.9-0.6-3.6-1.8-5L325.3,66.2z M411.5,38.6c-3,0-5.9,1.6-7.5,4
				c-1.3,1.9-1.7,3.6-1.7,7.3v10.4l-2.7-3.3l-11.9-14.7c-2.1-2.6-4.2-3.7-6.9-3.7c-5.8,0-9.6,3.9-9.6,9.9v35.3
				c0,4.1,0.4,5.8,1.9,7.9c1.8,2.3,4.5,3.6,7.4,3.6c2.8,0,5.3-1.3,7.1-3.3c1.6-2,2.1-3.7,2.1-7.4V72.8l14.5,18.6
				c1.9,2.5,4.3,3.8,7.3,3.8c2.8,0,5.5-1.3,7.2-3.4c1.6-2.1,2-3.9,2-8.4V49.3c0-3.4-0.6-5.3-2.2-7.4
				C416.8,39.8,414.3,38.6,411.5,38.6z M435,38.6c-4.9,0-8.1,5.9-8.1,10.7c0,2.2,0,5,0.5,7.6l0,0c0.7,3.3,2.2,6.2,5.9,6.9
				c3.9,0.8,6.6-2.8,8.1-6.9l0,0c1.2-3.1,1.7-6.4,1.7-8.5C443.1,43.6,439.8,38.6,435,38.6z M353.3,38.6c-2.7,0-5.1,1.1-6.8,3
				c-1.9,2.1-2.3,3.8-2.3,8.4v34.5c0,3.8,0.6,5.8,2.3,7.7c1.6,1.8,4.3,2.9,6.9,2.9c2.4,0,5.1-1.2,6.8-3.1c1.7-1.8,2.3-4,2.3-7.5V50
				c0-4.5-0.6-6.4-2.4-8.5C358.5,39.7,356,38.6,353.3,38.6z"/>
			<g>
				<path class="st0" d="M336.7,110.3L336.7,110.3c-0.2-2.4-0.8-3.6-2-5.1c-1.6-2-4.4-3.3-7.1-3.3s-5.3,1.3-7,3.5
					c-1.3,1.5-1.8,2.6-1.9,4.9l0,0c0,0.7-0.1,1.4-0.1,2.4V135c0,3.9-1.9,6.4-5.2,6.4c-3.3,0-5.2-2.5-5.2-6.6v-22
					c0-0.9,0-1.7-0.1-2.4l0,0c-0.2-2.5-1-4-2.4-5.5c-1.6-1.7-4.2-2.9-6.7-2.9c-2.6,0-5.4,1.4-7.2,3.5c-1.1,1.4-1.6,2.5-1.8,4.8l0,0
					c-0.1,1-0.1,2.2-0.1,3.8v19.7c0,7.3,1.1,11.2,4.4,15.7l0,0c0,0.1,0.1,0.1,0.1,0.2c4.4,6,11.5,9.7,18.9,9.7
					c6.6,0,13.1-3,17.6-8.2c0.5-0.5,0.9-1.1,1.3-1.7l0,0c3.1-4.2,4.5-9.1,4.5-15.7v-19.9C336.8,112.4,336.8,111.3,336.7,110.3z"/>
				<g>
					<path class="st0" d="M437.1,109.3c1.4,0,2.6-0.6,2.6-2.2c0-0.7-0.3-1.4-0.9-1.7c-0.6-0.4-1.3-0.4-2-0.4h-3.5v8.1h1v-3.7h1.8
						l0.6,1l1.7,2.8h1.2l-1.8-2.8L437.1,109.3z M435.7,108.6h-1.5v-2.9h2.3c1,0,2.1,0.2,2.1,1.4
						C438.6,108.7,436.9,108.6,435.7,108.6z"/>
					<path class="st0" d="M443,110.3c0.1-0.4,0.1-0.8,0.1-1.3c0-4-3.2-7.2-7.2-7.2s-7.2,3.2-7.2,7.2c0,0.4,0,0.9,0.1,1.3
						c0.6,3.4,3.6,6,7.1,6C439.5,116.2,442.4,113.7,443,110.3h-0.9c-0.6,2.9-3.1,5.1-6.2,5.1s-5.6-2.2-6.2-5.1l0,0
						c-0.1-0.4-0.1-0.8-0.1-1.3c0-3.5,2.8-6.3,6.4-6.3c3.5,0,6.3,2.8,6.3,6.3c0,0.4,0,0.9-0.1,1.3H443z"/>
				</g>
				<path class="st0" d="M163.1,149.5c5-5.2,7.9-12.2,7.9-19.4c0-3.4-0.6-6.8-1.8-10l0,0c-1.4-3.7-3.6-7-6.4-9.8l0,0
					c-0.3-0.3-0.6-0.6-0.9-0.9c-5.4-4.8-11.8-7.1-20.2-7.1h-11.3c-5.3,0-8.7,2.1-10,6c-0.2,0.6-0.3,1.1-0.4,1.9l0,0
					c0,0.9-0.1,2.1-0.1,4.5v5.3l0,0v25.4c0,2,0,3.2,0,4s0.1,1.4,0.3,2c0.6,2.1,1.7,3.6,3.8,4.9c1.6,1.1,3.3,1.5,7.7,1.5h7.8
					c3.8,0,7.2-0.3,9.4-0.7c4.8-1,9.5-3.4,13.1-6.7C162.5,150.2,162.8,149.8,163.1,149.5L163.1,149.5z M138.1,120.1v-0.9h1.7
					c3,0,4.9,0.3,6.5,0.9l0,0c0.2,0.1,0.4,0.2,0.7,0.3c3.7,1.8,6,5.6,6,9.8c0,3.5-1.8,7-4.6,9c-2.2,1.5-3.8,1.8-10.1,1.9h-0.2
					L138.1,120.1L138.1,120.1z"/>
				<path class="st0" d="M229.6,120.1L229.6,120.1c-1.4-3.7-3.4-7-6.1-9.8l0,0c-5.3-5.7-13-9.3-21.5-9.3c-8.6,0-16.2,3.6-21.6,9.3
					l0,0c-2.6,2.8-4.7,6.1-6,9.8l0,0c-1.1,3-1.7,6.3-1.7,9.7c0,7.6,2.8,14.5,7.4,19.7l0,0c5.3,6,13.2,9.8,21.9,9.8
					c8.6,0,16.4-3.8,21.8-9.8l0,0c4.6-5.2,7.4-12,7.4-19.4C231.4,126.6,230.8,123.2,229.6,120.1z M202.2,141.4
					c-6.1,0-11.1-5.1-11.1-11.3c0-4.5,2.8-8.3,6.7-10l0,0c1.4-0.6,2.9-0.9,4.4-0.9c1.6,0,3.1,0.3,4.4,0.9l0,0
					c3.9,1.7,6.7,5.6,6.7,10.1C213.3,136.3,208.3,141.4,202.2,141.4z"/>
				<path class="st0" d="M284,110.3L284,110.3c-0.2-2.1-0.8-3.6-2-5.1c-1.7-2.1-4.2-3.3-6.9-3.3c-3,0-5.8,1.6-7.4,3.9
					c-0.9,1.3-1.4,2.5-1.5,4.4l0,0c-0.1,0.8-0.1,1.7-0.1,2.8v10.8L263,120l-8-9.8l-3.9-4.7c-2.1-2.6-4.1-3.6-6.7-3.6
					c-5.2,0-8.9,3.3-9.4,8.4c0,0.4-0.1,0.9-0.1,1.4V147c0,1,0,1.8,0.1,2.5c0.2,2.4,0.7,3.7,1.8,5.3c1.7,2.2,4.4,3.5,7.2,3.5
					c2.7,0,5.3-1.2,7-3.3c1.3-1.6,1.8-3,2-5.5l0,0c0-0.5,0-1.1,0-1.8v-12.2l10.9,14l0,0l4,5.1c1.9,2.5,4.3,3.7,7.2,3.7
					c2.8,0,5.4-1.2,7.1-3.4c1.2-1.5,1.7-2.9,1.9-5.4l0,0c0.1-0.8,0.1-1.8,0.1-2.8v-34.2C284.1,111.7,284,110.9,284,110.3z"/>
				<path class="st0" d="M385.9,110.3L385.9,110.3c-0.2-4.1-3.2-7.2-7.4-7.8c-0.5-0.1-0.8-0.1-1.6-0.1c-0.8,0-2.1,0-4.7,0h-18.6
					c-7.3,0-8,0.1-9.9,0.9c-2.5,1.1-4.4,4.1-4.7,7l0,0c0,0.2,0,0.3,0,0.5c0,2.2,0.9,4.3,2.6,6c1.6,1.6,3.7,2.4,6.8,2.4h5.1v28.1
					c0,0.8,0,1.5,0.1,2.2c0.1,2.3,0.5,3.5,1.5,5c1.7,2.4,4.4,3.8,7.5,3.8s5.8-1.5,7.5-4.1c0.8-1.4,1.3-2.7,1.5-4.7
					c0.1-0.7,0.1-1.5,0.1-2.3v-28h4.3c3.3,0,5.6-0.7,7-2c1.8-1.6,3-4.1,3-6.5C385.9,110.6,385.9,110.4,385.9,110.3z"/>
				<path class="st0" d="M421.1,127.5c-2.6-2.2-7.1-4.4-11.8-5.8c-1.9-0.6-3.2-1.1-4-1.6l0,0c-1.2-0.7-1.6-1.4-1.6-2.4
					c0-1.3,1.1-2.3,2.3-2.3c1.1,0,2,0.5,4,2c1.8,1.4,3.3,2.2,4.7,2.7l0,0c0.9,0.3,1.8,0.4,2.8,0.4c0.9,0,1.8-0.2,2.6-0.4l0,0
					c2.7-1,4.5-3.6,4.5-7c0-1-0.2-1.9-0.5-2.8l0,0c-1.8-5.4-8.7-9.3-17.3-9.3c-8.3,0-14.9,3.5-18.1,9.3l0,0
					c-1.4,2.6-2.2,5.6-2.2,8.9c0,0.3,0,0.6,0,0.9l0,0c0.3,7.2,4.3,12.1,12,14.9c1.5,0.6,3,1.1,4.5,1.6c2.9,1.1,3.2,1.3,3.7,1.6
					c1,0.7,1.5,1.4,1.5,2.5c0,1.5-1,2.6-2.5,2.6c-1.4,0-2-0.4-6-3.5c-2.3-1.9-4.2-2.6-6.4-2.6c-4.6,0-8.2,3.6-8.2,8.2
					c0,1.5,0.3,2.9,0.9,4.2l0,0c2.6,5.7,10.3,9.8,20,9.8c6.8,0,11.8-1.8,15.5-5.6c1.2-1.2,2.2-2.7,3-4.2l0,0c1.4-2.7,2.2-5.8,2.2-9
					C426.7,135.3,424.5,130.3,421.1,127.5z"/>
			</g>
		</g>
		<g>
			<g>
				<path class="st0" d="M10.9,52.2C7,52.1,3.4,50.5,0.8,48.1c-0.3,1.1-0.4,2.2-0.4,3.4v11C1.8,59.2,5.3,55.8,10.9,52.2z"/>
				<path class="st0" d="M20.7,104.7c-4.5-0.6-7.4-2.4-8.6-5.4c0,0-11.1-28.2-11.3-28.6c-0.2-0.3-0.4-0.6-0.5-0.9v75.3
					c0,7.4,6.1,13.5,13.5,13.5h35.5c-1.2-1.2-2.2-2.7-3.1-4.3C46.3,154.3,24.5,112.1,20.7,104.7z"/>
			</g>
			<path class="st0" d="M94.6,37.9H74.5c0,0,0,0.1,0.1,0.1c0.4,0.5,0.7,1,0.9,1.6c0.2,0.4,0.3,0.9,0.4,1.3
				c9.6,24.7,11,28.1,11.2,28.6l0,0v0.1c0,0,0,0,0-0.1c0.3,0.9,0.5,1.8,0.5,2.7c0,2.2-1,4.6-3,7.1c2.4,7.6,6.9,22.6,14.9,52l0.4,1.6
				v-0.1c3.1,10.1-1.5,19.6-12.2,25.8h6.9c7.4,0,13.5-6.1,13.5-13.5V51.5C108.1,44,102,37.9,94.6,37.9z"/>
			<g>
				<g>
					<path class="st0" d="M30.5,3.5L30.5,3.5c-3.2,2.4-5.2,5.8-5.8,10c-0.8,5.8,2.5,9.6,5.4,13c3.2,3.7,5.9,6.9,4.2,12.4
						c-0.2,0.5-0.1,1.1,0.1,1.6c0.3,0.5,0.7,0.8,1.2,1c1.1,0.3,2.2-0.3,2.6-1.4c2.4-7.7-1.7-12.5-5-16.3c-3.1-3.6-5-6.1-4.4-9.8
						c0.4-3.1,1.9-5.6,4.2-7.3c3.4-2.5,7.9-2.8,9-2.6c4.8,0.8,6.2,4.4,6.6,5.9c0.3,1,0.3,2,0.2,3.1c-0.3,2.2-1.3,4.1-3,5.4
						c0,0,0,0-0.1,0c-2,1.1-3.7,1-4.8,0c-1-1-1.2-2.5-0.7-3.3c0.4-0.8,1.4-1.1,2.9-0.8c0.5,0.1,1.1,0,1.5-0.3s0.7-0.8,0.8-1.3
						c0.2-1.1-0.6-2.2-1.7-2.4c-3.3-0.6-6,0.5-7.2,3c-1.3,2.6-0.7,6,1.5,8.1c2.4,2.4,6.1,2.6,9.7,0.6l0.3-0.2c3.9-3,5.7-8,4.5-12.9
						c-1.2-4.7-5-8.2-9.9-9C40.6-0.2,35,0.2,30.5,3.5z"/>
					<path class="st0" d="M6.6,25.6c-4.1,2.9-6.1,6.5-6.5,9.8c-0.4,2.9,0.4,5.7,1.9,7.9c3.1,4.5,9.6,6.9,16.1,2.6l0.1-0.1
						c3.4-2.5,3.3-7.7,1.1-10.8c-2.1-3-5.7-3.5-9-1.3c-0.9,0.6-1.2,1.9-0.6,2.8c0.3,0.5,0.8,0.8,1.3,0.9c0.5,0.1,1.1,0,1.5-0.3
						c1.9-1.3,2.9-0.5,3.4,0.3c0.6,0.9,0.9,2.1,0.8,3.3c-0.1,0.8-0.4,1.4-0.9,1.8c-4.5,2.9-8.4,1.3-10.4-1.5c-2.2-3.2-2-8.2,3.5-12
						c5.4-3.7,9.3-1.4,11.2,0.3c3.5,3.2,4.9,8.8,3,12.2c-0.5,1-0.2,2.2,0.8,2.8c0.5,0.3,1,0.3,1.6,0.2c0.5-0.1,1-0.5,1.2-1
						c2.9-5.1,1.2-12.7-3.8-17.2C18.2,22,12.1,21.8,6.6,25.6z"/>
				</g>
				<path class="st0" d="M95.9,134l-0.4-1.6c-8.4-31.1-12.9-46-15.3-53.1c-0.2-0.6-0.1-1.2,0.4-1.7c2.4-2.7,3.3-4.9,2.6-6.6
					L71.9,42.2c0-0.1-0.1-0.2-0.1-0.4c-0.1-0.3-0.1-0.6-0.2-0.8c-0.1-0.3-0.3-0.5-0.5-0.8C71,40.1,71,40.1,71,40
					c-1.6-2.8-8.2-3.1-18.1-0.8c-5.7,1.2-12.6,3.3-18.8,5.8s-12.7,5.6-17.7,8.7c-8.9,5.1-13.5,9.9-12.6,13c0,0.1,0,0.2,0,0.3
					c0,0.4,0.1,0.7,0.2,0.9s0.2,0.4,0.4,0.7c0.1,0.1,0.1,0.2,0.2,0.4l11.3,28.8c0.7,1.7,2.8,2.7,6.4,3c0.6,0,1.1,0.4,1.4,0.9
					l26.2,50.7c5,10,19.4,9.6,30.6,5.1C93.1,152.4,98.9,143.6,95.9,134z M63.8,47.1c-6.6,0.7-16.5,3.4-25.9,7.1
					C28.4,58,19.4,63.1,14,67.1c-3.7,0.3-6,0-6.8-0.5c0.6-2.3,9.7-10.6,28.4-18.1c18.8-7.4,30.8-7.8,32.8-6.6
					C68.2,43.1,66.7,44.9,63.8,47.1z"/>
				<path class="st1" d="M92.2,134.9c2.5,8.1-3.7,14.9-13.1,18.7c-9.9,4-21.8,4.1-25.5-3.2c-1.3-2.5-17.7-32.7-25.7-49.7
					c8.2-0.8,18.2-3.8,25.6-6.7c7.3-3,16.6-7.7,23.1-12.7C82.4,99.1,91.4,132.2,92.2,134.9z"/>
				<path class="st1" d="M52,90.1c-17.3,6.9-30.4,7.4-32.4,5.7l-9.5-23.7c8.9,0.6,22.7-3.6,31.8-7.2C51,61.3,64,54.8,70,48.3
					L79.5,72C79.2,74.6,69.3,83.2,52,90.1z"/>
				<g>
					<path class="st0" d="M58.9,108.8L58.9,108.8c-0.9-1-2.1-1.8-3.4-2.3c-2.2-0.8-4.4-0.8-7-0.1c-1.2,0.3-2.3,0.6-3.5,0.9
						c-1.7,0.4-2.5,1.2-2.4,2.4c0,0.4,0.1,0.5,0.7,1.8c1.3,2.9,2.6,5.8,3.9,8.6c0.5,1.1,0.6,1.3,0.9,1.7c0.5,0.6,1,0.9,1.8,1.2
						c0.6,0.2,1.2,0.2,2.5-0.1c0.8-0.2,1.5-0.4,2.3-0.6c1.1-0.3,2.1-0.7,2.7-1c1.3-0.7,2.3-1.8,3-3.2c1-2.1,1.1-4.6,0.3-6.8
						C60.1,110.4,59.6,109.5,58.9,108.8z M54.8,116.2c-0.5,0.6-0.9,0.8-2.8,1.4c-0.9-2-1.7-4.1-2.6-6.1c0.2,0,0.3-0.1,0.5-0.1
						c0.9-0.2,1.4-0.3,2-0.3l0,0c0.1,0,0.2,0,0.3,0c1.3,0.2,2.4,1,2.9,2.2C55.5,114.3,55.4,115.4,54.8,116.2z"/>
					<path class="st0" d="M74.3,101.1L74.3,101.1c-0.8-1-1.9-1.6-3.1-2c-2-0.5-4-0.2-6.4,1c-1.1,0.5-2.2,1.1-3.3,1.5
						c-1.6,0.7-2.4,1.7-2.3,3c0,0.4,0.1,0.6,0.6,1.9c1.1,2.9,2.2,5.9,3.4,8.8c0.4,1.1,0.5,1.4,0.8,1.7c0.4,0.6,0.9,0.9,1.6,1
						c0.6,0.1,1.1,0,2.3-0.5c0.7-0.3,1.4-0.7,2.1-1c1-0.5,1.9-1,2.5-1.5c1.2-1,2.2-2.4,2.8-3.9c1-2.4,1.1-5.2,0.4-7.5
						C75.4,102.7,74.9,101.8,74.3,101.1z M70.4,109.9c-0.4,0.8-0.8,1-2.6,1.9c-0.8-2.1-1.5-4.1-2.2-6.2c0.1-0.1,0.3-0.1,0.4-0.2
						c0.8-0.4,1.3-0.6,1.8-0.7l0,0c0.1,0,0.2,0,0.3,0c1.2,0,2.2,0.7,2.6,1.9C71.1,107.6,71,108.9,70.4,109.9z"/>
				</g>
			</g>
		</g>
	</g>
</g>
</svg>
