<?xml version="1.0" encoding="utf-8"?>
<!-- Generator: Adobe Illustrator 21.1.0, SVG Export Plug-In . SVG Version: 6.00 Build 0)  -->
<svg version="1.1" id="Layer_1" xmlns="http://www.w3.org/2000/svg" xmlns:xlink="http://www.w3.org/1999/xlink" x="0px" y="0px"
	 viewBox="0 0 290.1 183.6" style="enable-background:new 0 0 290.1 183.6;" xml:space="preserve">
<style type="text/css">
	.st0{fill:#a9aaae;}
</style>
<g>
	<g>
		<path class="st0" d="M33.4,154l4.4,0.5c2,0.2,2.2,1.9,2.2,2.9v5.2H19.7v-5.2c0-1.1,0.2-2.7,2.2-2.9l4.4-0.5v-4.5H0v4.5l4.4,0.5
			c2,0.2,2.2,1.9,2.2,2.9v17.1c0,1.1-0.2,2.7-2.2,2.9L0,178v4.4h26.3V178l-4.4-0.5c-2-0.2-2.2-1.9-2.2-2.9v-5.2H40v5.2
			c0,1.1-0.2,2.7-2.2,2.9l-4.4,0.5v4.4h26.3V178l-4.4-0.5c-2-0.2-2.2-1.9-2.2-2.9v-17.1c0-1.1,0.2-2.7,2.2-2.9l4.4-0.5v-4.5H33.4
			V154z"/>
		<path class="st0" d="M209.1,149.6h-32.5v4.5l3.9,0.4c1.4,0.2,2.3,0.8,2.3,2.7v17.4c0,1.1-0.2,2.7-2.2,2.9l-4.4,0.5v4.4l32.9,0
			c11.8,0,21.5-4.7,21.5-16.4C230.6,154.3,220.9,149.6,209.1,149.6z M206.7,176.1l-11,0v-20.3h11c6.5,0,8.7,3.1,8.7,10.1
			C215.4,173,213.2,176.1,206.7,176.1z"/>
		<path class="st0" d="M285.9,177.5c-2.1-0.2-2.7-1.6-3.4-2.6c-15.2-23.2-15.2-23.2-15.2-23.2c-1.1-1.7-1.9-2.2-3.5-2.2h-25v4.5
			l6,0.7c0.8,0.1,2,1.2,1,2.8l-11.2,18.2c-0.5,0.7-1,1.6-2.3,1.8l-4.5,0.5v4.4h21V178l-3.6-0.4c-1.5-0.2-2.4-1.2-1.6-2.5l1.7-2.7
			h20.2l1.5,2.3c1.3,2-0.3,2.8-1.8,3l-3.7,0.4v4.5h28.5V178L285.9,177.5z M249,166.6l6.2-10.1l6.6,10.1H249z"/>
		<path class="st0" d="M153.1,154l4.4,0.5c2,0.2,2.2,1.9,2.2,2.9v16.4L142.2,151c-0.8-1.1-1.5-1.4-3.3-1.4c-1.2,0-22.6,0-22.6,0v4.5
			l4.4,0.5c2,0.2,2.2,1.9,2.2,2.9v17.1c0,1.1-0.2,2.7-2.2,2.9l-4.4,0.5v4.4h21V178l-4.4-0.5c-2-0.2-2.2-1.9-2.2-2.9v-16.4l17.4,22.9
			c0.8,1.1,1.5,1.4,3.3,1.4c0.1,0,0.2,0,0.2,0c0.8,0,4.1,0,15.8,0v-25c0-1.1,0.2-2.7,2.2-2.9l4.4-0.5v-4.5h-21V154z"/>
		<path class="st0" d="M88,148.4c-21.4,0-26.9,9.4-26.9,17.6c0,8.2,5.5,17.6,26.9,17.6c21.4,0,26.9-9.4,26.9-17.6
			C114.9,157.8,109.4,148.4,88,148.4z M88,177.3c-8.3,0-11.7-3.5-11.7-11.3c0-7.8,3.5-11.3,11.7-11.3c8.3,0,11.7,3.5,11.7,11.3
			C99.7,173.8,96.3,177.3,88,177.3z"/>
	</g>
	<g>
		<path class="st0" d="M181.5,10.8c-3.6,16.2-5.1,23.6-8,35.3c-2.8,11.2-5,21.7-8.8,26.7c-3.8,5.1-9,6.2-12.5,6.6
			c-1.8,0.2-3.1,0.3-7,0.3c-3.9,0-5.2-0.1-7-0.3c-3.5-0.4-8.6-1.5-12.5-6.6c-3.8-5.1-6-15.5-8.8-26.7c-2.9-11.7-4.4-19.1-8-35.3
			c0,0-3.6,0.1-5.2,0.3c-2.2,0.2-3.9,0.3-5.7,0.6c0,0,2.1,33.2,3,47.3c1,14.8,2.7,39.8,4.4,58.6c0,0,3,0.5,8.1,0.8
			c5.3,0.3,7.7,0.3,7.7,0.3c2.2-8.3,4.9-19.8,7.9-24.7c2.5-4,6.3-4.4,8.5-4.7c3.4-0.5,6.3-0.5,7.6-0.5l0,0c0,0,0,0,0,0c0,0,0,0,0,0
			l0,0c1.3,0,4.2,0,7.6,0.5c2.2,0.3,6,0.7,8.5,4.7c3.1,4.9,5.8,16.4,7.9,24.7c0,0,2.4,0,7.7-0.3c5-0.3,8.1-0.8,8.1-0.8
			c1.6-18.8,3.4-43.8,4.4-58.6c0.9-14.1,3-47.3,3-47.3c-1.8-0.2-3.5-0.4-5.7-0.6C185.1,11,181.5,10.8,181.5,10.8z"/>
		<path class="st0" d="M223.4,30.5c-2.1-21.1-16.2-25.6-28.6-27.6c-6.2-1-17.3-1.9-24.4-2.2C164.2,0.2,149.6,0,145.2,0
			c-4.3,0-19,0.2-25.2,0.6c-7.1,0.3-18.2,1.2-24.4,2.2C83.3,4.9,69.2,9.4,67.1,30.5c-0.6,5.8-0.8,13.3-0.6,21.3
			c0.2,13.4,1.3,22.4,2,28.7c0.4,4.3,2.2,17.2,4.5,23.9c3.2,9.2,6,11.8,9.4,14.6c6.1,5,16.2,6.5,18.3,6.9c11.4,2,34.4,2.4,44.6,2.4
			c10.2,0,33.2-0.4,44.6-2.4c2.1-0.4,12.2-1.9,18.3-6.9c3.3-2.7,6.2-5.4,9.4-14.6c2.3-6.7,4.1-19.6,4.5-23.9
			c0.7-6.3,1.8-15.3,2-28.7C224.2,43.7,224,36.2,223.4,30.5z M215.7,65.9c-1.2,16.9-2.7,27-4.9,34.3c-1.9,6.4-4.2,10.7-7.6,13.8
			c-5.7,5.1-13.5,6.3-18.1,6.9c-9.9,1.5-26.7,2-39.8,2c-13.1,0-29.9-0.5-39.8-2c-4.6-0.7-12.4-1.8-18.1-6.9
			c-3.4-3.1-5.7-7.4-7.6-13.8c-2.1-7.3-3.6-17.4-4.9-34.3c-0.8-10.2-0.6-26.6,0.5-35.5C77,17.2,83.6,10.6,97.6,8.1
			c6.6-1.2,15.4-2,23.7-2.4c6.7-0.5,17.7-0.7,23.9-0.6c6.2-0.1,17.2,0.2,23.9,0.6c8.4,0.4,17.2,1.2,23.7,2.4
			c14,2.5,20.6,9.1,22.3,22.3C216.3,39.3,216.4,55.8,215.7,65.9z"/>
	</g>
</g>
</svg>
