<?xml version="1.0" encoding="utf-8"?>
<!-- Generator: Adobe Illustrator 21.1.0, SVG Export Plug-In . SVG Version: 6.00 Build 0)  -->
<svg version="1.1" id="Layer_1" xmlns="http://www.w3.org/2000/svg" xmlns:xlink="http://www.w3.org/1999/xlink" x="0px" y="0px"
	 viewBox="0 0 432 447" style="enable-background:new 0 0 432 447;" xml:space="preserve">
<style type="text/css">
	.st0{display:none;}
	.st1{display:inline;}
	.st2{fill:#FFFFFF;}
	.st3{fill:#a9aaae;}
	.st4{display:none;fill:#a9aaae;}
</style>
<g id="stroke" class="st0">
	<g class="st1">
		<path class="st2" d="M216-7.6L17.2,49.5C8.1,51.9-9,62.8-9,86.5v194c0,23.8,17.1,34.6,26.1,37L216,374.7V-7.6z"/>
		<path class="st2" d="M216-7.6l198.8,57.2c9,2.4,26.1,13.2,26.1,37v194c0,23.8-17.1,34.6-26.1,37L216,374.7V-7.6z"/>
	</g>
</g>
<g id="shape">
	<path class="st3" d="M406.9,54.9L216,0l0,0l0,0l0,0l0,0L25.1,54.9C16.4,57.2,0,67.6,0,90.4v186.3c0,22.8,16.4,33.2,25.1,35.5
		L216,367.1l0,0l0,0l0,0l0,0l190.9-54.9c8.7-2.3,25.1-12.7,25.1-35.5V90.4C432,67.6,415.6,57.2,406.9,54.9z"/>
	<path class="st4" d="M407.7,206.6c-2.3,1-3.2,2.9-3.2,2.9c-7.3,38.2-28.6,66.5-62.8,70.8c-27.1,3.4-52.6-5.4-69.7-34.7
		c0,0-7.3-11.4-12.2-29.7c-0.9-3.8,15.8-19.7,36.3-59.3c3-5.8,11.1-25.6,10.7-27.6c-0.7-6.5-4.6-9.7-9.2-11.2
		c-21.5,35.8-52.3,75.1-52.7,68.5c4.1-52.7,0-137.2-1-138.9c-1.1-1.9-9-1.1-11.2-1.1s-4,1.5-4,1.5s-2.9,6.2-5.1,61.9
		c-1,26.2-2,78.1-2,78.1l-1,17.2c-1.3,9.8-3.1,16.3-4.8,20.8v32.8c2.2-3.2,3.7-6.3,6.4-10.6c0,4.5-0.1,11.4,0,14.3
		c0.4,14.6,1.8,24,4.8,26.6c2.9,2.6,15.5-0.1,17.4-2.4c1.8-2.2-2-43-1.5-46.6c0.4-1.6,1.3-0.6,2,1c19.6,42.4,56.3,63.9,91.1,59.2
		c38.8-5.2,65.4-40.9,73.7-89C409.9,211.1,412.1,204.8,407.7,206.6z"/>
	<path class="st4" d="M216,225.8c-2.2,5.2-3.5,6.9-3.5,6.9c-8,12.4-21.6,24.6-32.3,21.9c-9.4-2.3-15.4-15.7-17.4-38.6
		c-1.9-21.7,6.2-54.4,16.6-59.4c1.3-0.6,0.9-0.5,2,0.2c2.1,1.3,7,4.5,7.1,28.3c0,4.7-0.5,10.2-0.8,13.2c-0.2,2.5-0.2,2.5,0.3,2.7
		c1.5,0.7,4.7,1.3,11.5,1.3c7,0,7.7-5.5,8.2-8.8v-0.3c3.6-26.3-0.4-46.2-10.3-56.2c-4.1-4.1-10-5.8-15.3-5.1
		c-17.2,2.1-44,39.5-36.7,108.3c0,3.3-1.8,7.5-4,9.5c-0.7,0.6-1.7,1.3-2.8,1.2c-4-0.4-7-5.1-7.8-12.1c-0.9-9.2-0.6-43.5,7.4-79.4
		c1.3-5.7,1.4-6.1,0-7.6c-1.1-1.2-3-1.3-6.4-0.9l-1.8,0.2c-3.6,0.4-4.8-1.7-6.3,5c-1.7,7.4-5.6,2.4-8,1c-3.6-2.4-10.3-3.3-15.2-0.6
		c-7.6,4.2-20.7,15.8-22.4,54.7c0,0,2.8,22.4,2.8,22c4.3,32.5,16,36.6,19.6,37.6c5.7,1.6,10.8,0.6,14.3-3.3c4.5-4.9,5.7-7.9,6.2-9.4
		c1.1,0.1,2.9,3,3.5,3.9c4.9,7.7,10.1,9.8,13.6,10.3c4.2,0.5,8.6-1,12-4.2c5.4-5,7-11.9,11.4-6c12.3,16.4,32.3,16.6,46.6,5.6
		c3.8-3.7,6-6.4,7.8-9L216,225.8L216,225.8z M114.6,203c-0.7,13.3-1.3,21.8-2.4,34.2c-0.8,8.2-2.2,14.7-7.8,14.3
		c-3.1-0.2-7-8.2-8.6-16.7c-3.9-20.1-1.9-29.2,0.2-41c1.2-6.7,4.7-13.6,7.5-16.2c7.3-6.9,11.9-0.9,11.8,11.4
		C115.2,194.8,114.8,200.3,114.6,203z"/>
</g>
<g id="in_the_box_xAE_">
	<g>
		<path class="st3" d="M295.9,407.7h-21v-8.6c0-1.6-1.3-3-3-3h-3.1c-1.6,0-3,1.3-3,3v45.4c0,1.3,1.3,2.5,3,2.5h27.1c4.9,0,9-4,9-9
			v-21.4C304.8,411.7,300.8,407.7,295.9,407.7z M274.8,438.5v-22.4h17.9c1.6,0,3,1.3,3,3l0,0v16.4c0,1.6-1.3,3-3,3H274.8z M42.2,444
			c0,1.6-1.3,3-3,3h-3.1c-1.6,0-3-1.3-3-3v-33.4c0-1.6,1.3-3,3-3h3.1c1.6,0,3,1.3,3,3V444z M42.2,396.7c0-1.6-1.3-3-3-3h-3.1
			c-1.6,0-3,1.3-3,3v2.5c0,1.6,1.3,3,3,3h3.1c1.6,0,3-1.3,3-3V396.7z M140.3,447c1.6,0,3-1.3,3-3v-2.5c0-1.6-1.3-3-3-3h-7.6
			c-1.6,0-3-1.3-3-3v-19.4h10.6c1.6,0,3-1.3,3-3v-2.5c0-1.6-1.3-3-3-3h-10.6V399c0-1.6-1.3-3-3-3h-3.1c-1.6,0-3,1.3-3,3v39
			c0,4.9,4,9,9,9H140.3z"/>
		<path class="st3" d="M182.6,407.6h-21V399c0-1.6-1.3-3-3-3h-3.1c-1.6,0-3,1.3-3,3v45.4c0,1.3,1.3,2.5,3,2.5h3.1c1.6,0,3-1.1,3-2.5
			V416h17.9c1.6,0,3,1.3,3,3v25.4c0,1.3,1.3,2.5,3,2.5h3.1c1.6,0,3-1.1,3-2.5v-27.9C191.6,411.6,187.5,407.6,182.6,407.6z"/>
		<path class="st3" d="M82.6,444.5c0,1.3,1.3,2.5,3,2.5h3.1c1.6,0,3-1.1,3-2.5v-27.9c0-4.9-4-9-9-9H55.6c-1.6,0-3,1.3-3,3v33.9
			c0,1.3,1.3,2.5,3,2.5h3.1c1.6,0,3-1.1,3-2.5v-28.4h17.9c1.6,0,3,1.3,3,3V444.5z"/>
		<path class="st3" d="M391.5,408.5l-12.4,12.4l-12.4-12.4c-1.2-1.2-3.1-1.2-4.2,0l-2.2,2.2c-1.2,1.2-1.2,3.1,0,4.2l12.4,12.4
			l-12.4,12.4c-1.2,1.2-1.2,3.1,0,4.2l2.2,2.2c1.2,1.2,3.1,1.2,4.2,0l12.4-12.4l12.4,12.4c1.2,1.2,3.1,1.2,4.2,0l2.2-2.2
			c1.2-1.2,1.2-3.1,0-4.2l-12.4-12.4l12.4-12.4c1.2-1.2,1.2-3.1,0-4.2l-2.2-2.2C394.6,407.4,392.7,407.4,391.5,408.5z"/>
		<path class="st3" d="M351.8,437.9c0,4.9-4,9-9,9h-21.2c-4.9,0-9-4-9-9v-21.4c0-4.9,4-9,9-9h21.2c4.9,0,9,4,9,9V437.9z M342.7,419
			c0-1.6-1.3-3-3-3h-14.9c-1.6,0-3,1.3-3,3v16.4c0,1.6,1.3,3,3,3h14.9c1.6,0,3-1.3,3-3V419z"/>
		<path class="st3" d="M209,431.7v3.5c0,1.6,1.3,3,3,3h12h9.6c1.6,0,3,1.3,3,3v2.5c0,1.6-1.3,3-3,3h-24.7c-4.9,0-9-4-9-8.9v-21.5
			c0-4.9,4-9,9-9h19.9c4.9,0,9,4,9,9v12.4c0,1.6-1.3,3-3,3H209z M209,423.3c0.6,0,19.1,0,19.6,0c0-0.5,0-5,0-5
			c0-1.4-1.1-2.4-2.5-2.4h-14.7c-1.4,0-2.4,1-2.4,2.4C209,418.3,209,422.7,209,423.3z"/>
	</g>
	<path class="st3" d="M408.2,410.1c-3.9,0-6.6-2.9-6.6-6.7c0-4.1,3.1-6.7,6.6-6.7s6.6,2.7,6.6,6.7
		C414.8,407.4,411.8,410.1,408.2,410.1z M408.2,397.8c-2.9,0-5.2,2.3-5.2,5.6c0,3.1,2,5.6,5.2,5.6c2.9,0,5.2-2.3,5.2-5.6
		C413.4,400.1,411.1,397.8,408.2,397.8z M406.9,407.2h-1.2v-7.5h2.8c1.8,0,2.7,0.6,2.7,2.1c0,1.4-0.8,1.9-1.9,2l2.1,3.3H410l-2-3.1
		h-1.2v3.2H406.9z M408.3,403c0.9,0,1.7-0.1,1.7-1.2c0-0.9-0.9-1-1.6-1h-1.5v2.2H408.3z"/>
</g>
<g id="Jack">
	<path class="st3" d="M103.2,176.3c-2.8,2.7-6.3,9.6-7.6,16.3c-2.1,11.8-4.3,26.3-2.1,41.3c2.3,15,6.6,17,10.3,17.8
		c5.7,0.4,7.3-7.3,8.1-15.5c1.2-12.4,1.8-20.9,2.4-34.3c0.1-2.7,0.6-8.2,0.7-14.1C115.2,175.4,110.6,169.3,103.2,176.3z"/>
	<g>
		<path class="st2" d="M407.8,207.6c-2.3,1-3.2,2.9-3.2,2.9c-7.3,38.2-28.6,66.5-62.8,70.8c-27.1,3.4-52.6-5.4-69.7-34.7
			c0,0-7.3-11.4-12.2-29.7c-0.9-3.8,15.8-19.7,36.3-59.3c3-5.8,11.1-25.6,10.7-27.6c-0.7-6.5-4.6-9.7-9.2-11.2
			c-21.5,35.8-52.3,75.1-52.7,68.5c4.1-52.7,0-137.2-1-138.9c-1.1-1.9-9-1.1-11.2-1.1s-4,1.5-4,1.5s-2.9,6.2-5.1,61.9
			c-1,26.2-2,78.1-2,78.1s-1.4,37.4-5.8,45v0.1c-5.2,9.3-24.7,30.5-35.9,27.4c-10.3-2.8-16.5-12.2-17.4-38.8
			c-0.8-21.9,6.2-54.7,16.7-59.6c1.3-0.6,0.9-0.5,2,0.2c2.1,1.3,7.1,4.5,7.1,28.4c0,4.7-0.5,10.3-0.8,13.2c-0.3,2.5-0.3,2.5,0.3,2.8
			c1.5,0.7,4.7,1.3,11.5,1.3c7,0,7.7-5.6,8.2-8.9v-0.3c3.6-26.4-0.4-46.5-10.3-56.4c-4.1-4.1-10.1-5.9-15.4-5.1
			c-17.3,2.1-43.8,43.2-36.5,112.3c0,3.3-1.6,5.2-3.3,6c-2.5,0.7-3.5,0.2-5.9-2.5c-2.4-2.6-4.8-9-5.5-16.1
			c-0.9-9.2-0.6-43.7,7.4-79.8c1.3-5.7,1.4-6.2,0-7.7c-1.1-1.2-3-1.3-6.4-0.9l-1.8,0.2c-3.6,0.4-4.8-1.7-6.4,5c-1.7,7.5-5.6,2.4-8,1
			c-3.6-2.4-10.4-3.3-15.3-0.6c-7.3,4.1-19.4,19.2-22,54.6c-0.2-1.3-0.3-2.2-0.4-2.7c-6.5-60-19.5-123.7-20.1-126.2
			c-1.4-4.6-14.2-7.3-16.6-6.7c-1.4,0.3-0.2,2.7,2.9,22.9c7.9,52,18.7,143.2,11,167.2c-3.4,10.6-17.2,13.9-24,3.8
			c-7.9-11.7-9.4-19.4-11.5-25.8c0,0-1.2,0.5-2.8,2c-2.1,2-2,2-1.7,5.3c0.6,7.4,3.8,21.8,10.4,32.5c12.1,19.5,31.3,19.1,41,10.9
			c6-5.1,13.1-14.1,14.5-35.2c0.4-5.7,0.4-12,0.3-17c1.3,7.9,4.2,21.9,12.6,27c6.3,3.9,16.4,3.9,21.7-0.9c4.5-4.9,5.7-7.9,6.2-9.5
			c0.9,0.3,9.3,27.2,25.8,15.2c6-4.3,6.4-9.3,10.8-3.4c15.2,20.3,40.7,11.7,57.6-9.4l0,0c2.4-2.8,3.9-4.9,6.4-8.9
			c0,4.5-0.1,9.4,0,12.4c0.4,14.6,1.8,24,4.8,26.6c2.9,2.6,15.5-0.1,17.4-2.4c1.8-2.2-2-43-1.5-46.6c0.4-1.6,1.3-0.6,2,1
			c19.6,42.4,56.3,63.9,91.1,59.2c38.8-5.2,65.4-40.9,73.7-89C410,212.1,412.1,205.8,407.8,207.6z M114.5,201.8
			c-0.7,13.4-1.3,21.9-2.4,34.3c-0.8,8.3-2.4,16-8.1,15.5c-3.7-0.8-8-2.9-10.3-17.8c-2.3-15-0.1-29.5,2.1-41.3
			c1.2-6.7,4.7-13.6,7.6-16.3c7.4-6.9,12-0.9,11.9,11.5C115.1,193.7,114.6,199.1,114.5,201.8z"/>
	</g>
</g>
</svg>
